<svg aria-hidden="true" style="position: absolute; width: 0; height: 0; overflow: hidden;" version="1.1" xmlns="http://www.w3.org/2000/svg" xmlns:xlink="http://www.w3.org/1999/xlink">
<defs>
<symbol id="icon-email" viewBox="0 0 32 32">
<path d="M28 4h-24c-1.65 0-2.986 1.35-2.986 3l-0.014 18c0 1.65 1.35 3 3 3h24c1.65 0 3-1.35 3-3v-18c0-1.65-1.35-3-3-3zM27.4 10.376l-10.604 6.628c-0.226 0.141-0.501 0.225-0.795 0.225s-0.569-0.084-0.801-0.229l0.006 0.004-10.606-6.63c-0.378-0.226-0.627-0.632-0.627-1.097 0-0.704 0.57-1.274 1.274-1.274 0.262 0 0.505 0.079 0.707 0.214l-0.005-0.003 10.050 6.286 10.050-6.286c0.198-0.132 0.441-0.211 0.703-0.211 0.704 0 1.274 0.57 1.274 1.274 0 0.465-0.249 0.871-0.621 1.094l-0.006 0.003z"></path>
</symbol>
<symbol id="icon-galoshka" viewBox="0 0 32 32">
<path fill="#fff" style="fill: var(--color1, #fff); stroke: var(--color1, #fff)" stroke="#fff" stroke-linejoin="miter" stroke-linecap="butt" stroke-miterlimit="4" stroke-width="0.4923" d="M4.817 15.39l-0.17-0.162-0.17 0.16-2.373 2.25 0.187 0.18 8.775 8.369 0.17-0.162 18.658-17.799-0.187-0.177-2.341-2.233-0.17 0.162-16.13 15.375-6.25-5.962z"></path>
</symbol>
<symbol id="icon-icon-send" viewBox="0 0 32 32">
<path  d="M32 0l-32 18 10.227 3.787 15.773-14.787-11.997 16.187 0.009 0.003-0.012-0.003v8.813l5.735-6.691 7.267 2.691 4.999-28z"></path>
</symbol>
<symbol id="icon-rery" viewBox="0 0 32 32">
<path d="M16 16c4.418 0 8-3.582 8-8s-3.582-8-8-8v0c-4.418 0-8 3.582-8 8s3.582 8 8 8v0zM16 20c-5.339 0-16 2.68-16 8v2c0 1.099 0.901 2 2 2h28c1.099 0 2-0.901 2-2v-2c0-5.32-10.661-8-16-8z"></path>
</symbol>
<symbol id="icon-trybka" viewBox="0 0 32 32">
<path d="M27.419 20.853l-4.201-0.48c-0.116-0.014-0.25-0.023-0.385-0.023-0.909 0-1.732 0.369-2.328 0.964l-3.045 3.045c-4.718-2.435-8.467-6.185-10.835-10.764l-0.065-0.139 3.063-3.056c0.596-0.596 0.964-1.419 0.964-2.328 0-0.136-0.008-0.27-0.024-0.401l0.002 0.016-0.48-4.169c-0.199-1.655-1.595-2.926-3.287-2.926-0.001 0-0.003 0-0.004 0h-2.861c-1.87-0.005-3.424 1.55-3.31 3.417 0.878 14.126 12.176 25.408 26.286 26.286 1.867 0.114 3.424-1.44 3.424-3.31v-2.862c0-0.005 0-0.010 0-0.016 0-1.681-1.266-3.067-2.897-3.256l-0.015-0.001z"></path>
</symbol>
<symbol id="icon-images" viewBox="0 0 36 32">
<path d="M34 4h-2v-2c0-1.1-0.9-2-2-2h-28c-1.1 0-2 0.9-2 2v24c0 1.1 0.9 2 2 2h2v2c0 1.1 0.9 2 2 2h28c1.1 0 2-0.9 2-2v-24c0-1.1-0.9-2-2-2zM4 6v20h-1.996c-0.001-0.001-0.003-0.002-0.004-0.004v-23.993c0.001-0.001 0.002-0.003 0.004-0.004h27.993c0.001 0.001 0.003 0.002 0.004 0.004v1.996h-24c-1.1 0-2 0.9-2 2v0zM34 29.996c-0.001 0.001-0.002 0.003-0.004 0.004h-27.993c-0.001-0.001-0.003-0.002-0.004-0.004v-23.993c0.001-0.001 0.002-0.003 0.004-0.004h27.993c0.001 0.001 0.003 0.002 0.004 0.004v23.993z"></path>
<path d="M30 11c0 1.657-1.343 3-3 3s-3-1.343-3-3 1.343-3 3-3 3 1.343 3 3z"></path>
<path d="M32 28h-24v-4l7-12 8 10h2l7-6z"></path>
</symbol>
<symbol id="icon-film" viewBox="0 0 32 32">
<path d="M0 4v24h32v-24h-32zM6 26h-4v-4h4v4zM6 18h-4v-4h4v4zM6 10h-4v-4h4v4zM24 26h-16v-20h16v20zM30 26h-4v-4h4v4zM30 18h-4v-4h4v4zM30 10h-4v-4h4v4zM12 10v12l8-6z"></path>
</symbol>
<symbol id="icon-video-camera" viewBox="0 0 32 32">
<path d="M12 9c0-2.761 2.239-5 5-5s5 2.239 5 5c0 2.761-2.239 5-5 5s-5-2.239-5-5zM0 9c0-2.761 2.239-5 5-5s5 2.239 5 5c0 2.761-2.239 5-5 5s-5-2.239-5-5zM24 19v-3c0-1.1-0.9-2-2-2h-20c-1.1 0-2 0.9-2 2v10c0 1.1 0.9 2 2 2h20c1.1 0 2-0.9 2-2v-3l8 5v-14l-8 5zM20 24h-16v-6h16v6z"></path>
</symbol>
<symbol id="icon-copy" viewBox="0 0 32 32">
<path d="M20 8v-8h-14l-6 6v18h12v8h20v-24h-12zM6 2.828v3.172h-3.172l3.172-3.172zM2 22v-14h6v-6h10v6l-6 6v8h-10zM18 10.828v3.172h-3.172l3.172-3.172zM30 30h-16v-14h6v-6h10v20z"></path>
</symbol>
<symbol id="icon-price-tag" viewBox="0 0 32 32">
<path d="M30.5 0h-12c-0.825 0-1.977 0.477-2.561 1.061l-14.879 14.879c-0.583 0.583-0.583 1.538 0 2.121l12.879 12.879c0.583 0.583 1.538 0.583 2.121 0l14.879-14.879c0.583-0.583 1.061-1.736 1.061-2.561v-12c0-0.825-0.675-1.5-1.5-1.5zM23 12c-1.657 0-3-1.343-3-3s1.343-3 3-3 3 1.343 3 3-1.343 3-3 3z"></path>
</symbol>
<symbol id="icon-barcode" viewBox="0 0 32 32">
<path d="M0 4h4v20h-4zM6 4h2v20h-2zM10 4h2v20h-2zM16 4h2v20h-2zM24 4h2v20h-2zM30 4h2v20h-2zM20 4h1v20h-1zM14 4h1v20h-1zM27 4h1v20h-1zM0 26h2v2h-2zM6 26h2v2h-2zM10 26h2v2h-2zM20 26h2v2h-2zM30 26h2v2h-2zM24 26h4v2h-4zM14 26h4v2h-4z"></path>
</symbol>
</defs>
</svg>
