<svg aria-hidden="true" style="position: absolute; width: 0; height: 0; overflow: hidden;" version="1.1" xmlns="http://www.w3.org/2000/svg" xmlns:xlink="http://www.w3.org/1999/xlink">
<defs>
<symbol id="Instagram" viewBox="0 0 156 32">
<path fill="#2196f3" style="fill: var(--color1, #2196f3)" d="M4.983 24.471h-4.168v-24.088h4.168v24.088zM14.15 6.569l0.113 2.069c1.325-1.6 3.063-2.4 5.214-2.4 3.727 0 5.624 2.135 5.69 6.404v11.829h-4.021v-11.597c0-1.137-0.248-1.975-0.745-2.515-0.484-0.552-1.284-0.828-2.398-0.828-1.621 0-2.829 0.734-3.624 2.202v12.738h-4.019v-17.901h3.787zM39.989 19.607c0-0.715-0.297-1.261-0.892-1.638-0.584-0.376-1.562-0.706-2.929-0.992-1.367-0.288-2.509-0.651-3.426-1.092-2.007-0.971-3.010-2.377-3.010-4.22 0-1.544 0.651-2.835 1.952-3.87 1.303-1.037 2.955-1.557 4.964-1.557 2.14 0 3.866 0.531 5.178 1.589 1.323 1.060 1.986 2.432 1.986 4.12h-4.021c0-0.772-0.286-1.412-0.86-1.92-0.574-0.518-1.336-0.777-2.283-0.777-0.883 0-1.606 0.203-2.167 0.612-0.552 0.408-0.828 0.954-0.828 1.638 0 0.619 0.26 1.097 0.777 1.44 0.52 0.343 1.566 0.689 3.144 1.043 1.577 0.341 2.812 0.755 3.706 1.24 0.904 0.474 1.572 1.048 2.001 1.72 0.442 0.672 0.663 1.489 0.663 2.447 0 1.611-0.666 2.918-2.001 3.923-1.336 0.992-3.083 1.487-5.246 1.487-1.466 0-2.773-0.264-3.921-0.792-1.146-0.529-2.040-1.257-2.679-2.184-0.599-0.832-0.959-1.871-0.96-2.995v-0h3.904c0.056 0.949 0.414 1.681 1.075 2.2 0.663 0.508 1.54 0.76 2.632 0.76 1.058 0 1.864-0.198 2.415-0.595 0.552-0.408 0.828-0.937 0.828-1.589zM53.175 2.219v4.35h3.16v2.978h-3.162v9.993c0 0.683 0.134 1.18 0.399 1.487 0.275 0.301 0.76 0.448 1.455 0.448 0.463 0 0.932-0.056 1.406-0.166v3.112c-0.791 0.235-1.701 0.373-2.643 0.38l-0.004 0c-3.087 0-4.631-1.704-4.631-5.112v-10.142h-2.946v-2.978h2.944v-4.348h4.021zM70.793 24.471c-0.177-0.343-0.331-0.898-0.463-1.672-1.147 1.234-2.778 2.004-4.59 2.004-0.038 0-0.076-0-0.114-0.001l0.006 0c-1.798 0-3.266-0.514-4.401-1.54-1.137-1.026-1.704-2.293-1.704-3.804 0-1.909 0.706-3.369 2.118-4.386 1.421-1.024 3.452-1.538 6.088-1.538h2.466v-1.175c0-0.926-0.26-1.664-0.777-2.216-0.52-0.565-1.308-0.845-2.366-0.845-0.917 0-1.666 0.232-2.251 0.696-0.584 0.452-0.875 1.030-0.875 1.736h-4.021c0-0.981 0.326-1.896 0.975-2.746 0.651-0.86 1.534-1.532 2.648-2.018 1.124-0.486 2.376-0.728 3.755-0.728 2.095 0 3.765 0.531 5.013 1.589 1.246 1.048 1.886 2.526 1.92 4.435v8.073c0 1.609 0.226 2.895 0.678 3.855v0.28h-4.104zM66.376 21.576c0.794 0 1.54-0.194 2.234-0.58 0.674-0.359 1.216-0.89 1.577-1.535l0.010-0.020v-3.375h-2.165c-1.491 0-2.611 0.26-3.36 0.777-0.749 0.52-1.126 1.252-1.126 2.202 0 0.772 0.254 1.387 0.762 1.852 0.518 0.452 1.207 0.678 2.067 0.678zM78.404 15.388c0-2.78 0.649-4.996 1.952-6.65 1.312-1.666 3.049-2.5 5.21-2.5 2.040 0 3.646 0.712 4.815 2.135l0.181-1.803h3.624v17.355c0 2.349-0.734 4.201-2.2 5.559-1.455 1.355-3.424 2.035-5.905 2.035-1.314 0-2.598-0.275-3.855-0.828-1.246-0.538-2.195-1.25-2.846-2.133l1.901-2.415c1.237 1.466 2.76 2.2 4.568 2.2 1.335 0 2.387-0.365 3.159-1.092 0.772-0.717 1.16-1.777 1.16-3.177v-1.207c-1.16 1.289-2.703 1.935-4.632 1.935-2.097 0-3.812-0.834-5.146-2.498-1.323-1.666-1.984-3.972-1.984-6.916zM82.408 15.735c0 1.798 0.363 3.215 1.092 4.254 0.738 1.024 1.758 1.536 3.061 1.536 1.619 0 2.824-0.695 3.607-2.084v-7.874c-0.762-1.357-1.954-2.037-3.575-2.037-1.323 0-2.353 0.525-3.093 1.572-0.728 1.048-1.092 2.592-1.092 4.632zM108.38 10.242c-0.485-0.084-1.044-0.132-1.614-0.132-0.008 0-0.017 0-0.025 0h0.001c-1.843 0-3.083 0.706-3.723 2.118v12.243h-4.019v-17.901h3.838l0.098 2.003c0.971-1.555 2.315-2.334 4.038-2.334 0.574 0 1.048 0.077 1.423 0.232l-0.017 3.772zM121.798 24.471c-0.177-0.343-0.331-0.898-0.463-1.672-1.146 1.234-2.778 2.004-4.589 2.004-0.039 0-0.078-0-0.117-0.001l0.006 0c-1.798 0-3.264-0.514-4.401-1.54-1.135-1.026-1.704-2.293-1.704-3.804 0-1.909 0.706-3.369 2.118-4.386 1.423-1.024 3.452-1.538 6.089-1.538h2.466v-1.175c0-0.926-0.26-1.664-0.779-2.216-0.518-0.565-1.306-0.845-2.366-0.845-0.915 0-1.666 0.232-2.249 0.696-0.584 0.452-0.877 1.030-0.877 1.736h-4.021c0-0.981 0.326-1.896 0.977-2.746 0.651-0.86 1.532-1.532 2.647-2.018 1.126-0.486 2.377-0.728 3.755-0.728 2.097 0 3.767 0.531 5.013 1.589 1.246 1.048 1.886 2.526 1.92 4.435v8.073c0 1.609 0.226 2.895 0.678 3.855v0.28h-4.104zM117.38 21.576c0.794 0 1.538-0.194 2.232-0.58 0.675-0.358 1.217-0.89 1.579-1.535l0.010-0.020v-3.375h-2.167c-1.489 0-2.609 0.26-3.358 0.777-0.751 0.52-1.126 1.252-1.126 2.202 0 0.772 0.254 1.387 0.76 1.852 0.52 0.452 1.208 0.678 2.069 0.678zM133.89 6.569l0.115 1.869c1.259-1.466 2.98-2.2 5.163-2.2 2.392 0 4.030 0.917 4.913 2.748 1.301-1.832 3.132-2.748 5.493-2.748 1.975 0 3.441 0.546 4.401 1.638 0.971 1.092 1.468 2.703 1.489 4.832v11.763h-4.021v-11.648c0-1.135-0.248-1.967-0.744-2.498-0.497-0.527-1.318-0.794-2.466-0.794-0.915 0-1.666 0.248-2.249 0.745-0.573 0.495-0.996 1.149-1.202 1.893l-0.006 0.027 0.017 12.275h-4.021v-11.78c-0.055-2.106-1.129-3.16-3.226-3.16-1.609 0-2.752 0.659-3.424 1.969v12.971h-4.021v-17.901h3.789z"></path>
</symbol>
<symbol id="LinkedIn" viewBox="0 0 147 32">
<path fill="#2196f3" style="fill: var(--color1, #2196f3)" d="M5.385 26.080h12.395v3.787h-17.137v-27.3h4.742v23.514zM26.59 29.867h-4.553v-20.288h4.555v20.288zM21.754 4.309c0-0.7 0.22-1.28 0.657-1.743 0.448-0.463 1.088-0.693 1.911-0.693 0.826 0 1.463 0.23 1.911 0.693 0.45 0.463 0.676 1.045 0.676 1.745 0 0.687-0.226 1.261-0.676 1.724-0.448 0.45-1.088 0.676-1.911 0.676-0.826 0-1.461-0.226-1.911-0.676-0.407-0.431-0.658-1.014-0.658-1.656 0-0.024 0-0.048 0.001-0.071l-0 0.003zM36.565 9.579l0.128 2.347c1.502-1.813 3.469-2.72 5.907-2.72 4.224 0 6.374 2.419 6.449 7.258v13.404h-4.555v-13.143c0-1.289-0.282-2.238-0.845-2.85-0.55-0.625-1.455-0.939-2.718-0.939-1.839 0-3.206 0.832-4.107 2.496v14.436h-4.557v-20.288h4.294zM61.071 21.167l-2.027 2.082v6.618h-4.555v-28.8h4.557v16.612l1.425-1.781 5.606-6.319h5.474l-7.537 8.457 8.341 11.831h-5.267l-6.018-8.7zM83.87 30.242c-2.886 0-5.231-0.907-7.031-2.72-1.788-1.824-2.682-4.25-2.682-7.275v-0.561c0-2.027 0.388-3.831 1.163-5.419 0.789-1.6 1.888-2.846 3.3-3.733 1.312-0.836 2.911-1.332 4.626-1.332 0.035 0 0.070 0 0.105 0.001l-0.005-0c2.763 0 4.894 0.883 6.394 2.645 1.513 1.762 2.27 4.256 2.27 7.482v1.835h-13.257c0.137 1.677 0.693 3.002 1.668 3.977 0.988 0.975 2.225 1.463 3.712 1.463 2.089 0 3.789-0.845 5.099-2.532l2.458 2.345c-0.811 1.212-1.899 2.155-3.264 2.831-1.348 0.661-2.867 0.994-4.555 0.994zM83.326 12.86c-1.25 0-2.261 0.437-3.038 1.314-0.762 0.875-1.25 2.093-1.461 3.654h8.683v-0.335c-0.102-1.525-0.508-2.675-1.22-3.45-0.713-0.789-1.7-1.182-2.963-1.182zM95.475 19.573c0-3.125 0.725-5.632 2.176-7.52 1.451-1.899 3.392-2.85 5.83-2.85 2.15 0 3.887 0.751 5.212 2.251v-10.387h4.557v28.8h-4.124l-0.226-2.099c-1.363 1.649-3.181 2.475-5.455 2.475-2.377 0-4.301-0.958-5.777-2.869-1.461-1.911-2.193-4.512-2.193-7.799zM100.032 19.966c0 2.063 0.393 3.676 1.182 4.838 0.8 1.15 1.931 1.724 3.392 1.724 1.862 0 3.226-0.832 4.087-2.492v-8.661c-0.836-1.628-2.187-2.441-4.049-2.441-1.474 0-2.613 0.589-3.413 1.764-0.8 1.163-1.199 2.918-1.199 5.269zM124.218 29.867h-4.723v-27.3h4.723v27.3zM134.607 9.579l0.128 2.345c1.502-1.813 3.471-2.72 5.909-2.72 4.224 0 6.372 2.419 6.449 7.258v13.406h-4.557v-13.143c0-1.289-0.282-2.238-0.845-2.85-0.548-0.625-1.455-0.939-2.718-0.939-1.837 0-3.206 0.832-4.107 2.496v14.436h-4.557v-20.288h4.294z"></path>
</symbol>
<symbol id="Twitter" viewBox="0 0 126 32">
<path fill="#2196f3" style="fill: var(--color1, #2196f3)" d="M22.5 6.391h-8.512v23.475h-4.708v-23.475h-8.435v-3.825h21.653v3.825zM43.349 23.586l3.226-14.007h4.444l-5.532 20.288h-3.75l-4.35-13.931-4.275 13.931h-3.75l-5.549-20.288h4.444l3.281 13.856 4.162-13.856h3.43l4.22 14.007zM59.68 29.867h-4.557v-20.288h4.557v20.288zM54.842 4.309c0-0.7 0.22-1.28 0.657-1.743 0.448-0.463 1.088-0.693 1.911-0.693 0.826 0 1.463 0.23 1.914 0.693 0.448 0.463 0.674 1.045 0.674 1.745 0 0.687-0.224 1.261-0.674 1.724-0.45 0.45-1.088 0.676-1.914 0.676-0.823 0-1.461-0.226-1.911-0.676-0.407-0.431-0.658-1.014-0.658-1.656 0-0.024 0-0.048 0.001-0.071l-0 0.003zM71.136 4.649v4.93h3.58v3.375h-3.58v11.326c0 0.774 0.149 1.338 0.448 1.685 0.314 0.341 0.864 0.508 1.651 0.508 0.525 0 1.056-0.064 1.594-0.188v3.526c-0.897 0.266-1.928 0.423-2.995 0.431l-0.004 0c-3.499 0-5.25-1.931-5.25-5.794v-11.494h-3.337v-3.375h3.337v-4.928h4.557zM84.691 4.649v4.93h3.58v3.375h-3.578v11.326c0 0.774 0.149 1.338 0.448 1.685 0.314 0.341 0.864 0.508 1.651 0.508 0.525 0 1.056-0.064 1.594-0.188v3.526c-0.897 0.266-1.928 0.423-2.995 0.431l-0.004 0c-3.499 0-5.25-1.931-5.25-5.794v-11.494h-3.337v-3.375h3.337v-4.928h4.557zM101.472 30.242c-2.889 0-5.233-0.907-7.031-2.72-1.788-1.824-2.682-4.25-2.682-7.275v-0.561c0-2.027 0.388-3.831 1.163-5.419 0.787-1.6 1.888-2.846 3.3-3.733 1.312-0.836 2.911-1.332 4.626-1.332 0.035 0 0.070 0 0.105 0.001l-0.005-0c2.761 0 4.892 0.883 6.394 2.645 1.513 1.762 2.268 4.256 2.268 7.482v1.835h-13.257c0.139 1.677 0.693 3.002 1.668 3.977 0.988 0.975 2.225 1.463 3.712 1.463 2.091 0 3.789-0.845 5.101-2.532l2.458 2.345c-0.822 1.211-1.923 2.174-3.215 2.809l-0.049 0.022c-1.348 0.661-2.867 0.994-4.555 0.994zM100.928 12.86c-1.25 0-2.261 0.437-3.038 1.314-0.764 0.875-1.25 2.093-1.463 3.654h8.683v-0.335c-0.1-1.525-0.508-2.675-1.22-3.45-0.713-0.789-1.698-1.182-2.961-1.182zM124.553 13.741c-0.55-0.095-1.183-0.149-1.829-0.149-0.010 0-0.019 0-0.028 0h0.001c-2.089 0-3.494 0.8-4.22 2.4v13.875h-4.557v-20.288h4.352l0.111 2.27c1.101-1.762 2.624-2.645 4.576-2.645 0.649 0 1.186 0.087 1.611 0.262l-0.017 4.275z"></path>
</symbol>
<symbol id="Facebook" viewBox="0 0 173 32">
<path fill="#2196f3" style="fill: var(--color1, #2196f3)" d="M16.373 18.298h-10.987v11.569h-4.747v-27.3h17.344v3.825h-12.599v8.119h10.987v3.787zM33.566 29.867c-0.201-0.388-0.375-1.018-0.525-1.894-1.299 1.399-3.148 2.271-5.201 2.271-0.044 0-0.087-0-0.13-0.001l0.006 0c-2.037 0-3.701-0.582-4.988-1.745-1.289-1.163-1.931-2.598-1.931-4.311 0-2.163 0.8-3.819 2.4-4.971 1.611-1.161 3.913-1.743 6.899-1.743h2.795v-1.331c0-1.050-0.294-1.886-0.881-2.511-0.589-0.64-1.483-0.958-2.682-0.958-1.039 0-1.888 0.262-2.551 0.789-0.661 0.512-0.992 1.167-0.992 1.967h-4.559c0-1.111 0.369-2.148 1.105-3.113 0.738-0.975 1.739-1.737 3.002-2.287 1.274-0.55 2.692-0.826 4.256-0.826 2.374 0 4.267 0.602 5.681 1.801 1.412 1.188 2.138 2.863 2.176 5.026v9.15c0 1.824 0.256 3.281 0.768 4.369v0.318h-4.651zM28.559 26.586c0.9 0 1.745-0.22 2.532-0.657 0.765-0.406 1.379-1.008 1.789-1.74l0.011-0.022v-3.825h-2.458c-1.685 0-2.957 0.294-3.806 0.881-0.849 0.589-1.276 1.419-1.276 2.496 0 0.875 0.288 1.572 0.864 2.099 0.587 0.512 1.367 0.768 2.342 0.768zM51.322 26.605c1.137 0 2.082-0.333 2.831-0.994 0.751-0.661 1.152-1.483 1.201-2.458h4.292c-0.055 1.331-0.489 2.551-1.194 3.568l0.015-0.022c-0.738 1.088-1.739 1.95-3.002 2.586-1.172 0.604-2.558 0.958-4.026 0.958-0.022 0-0.043-0-0.065-0l0.003 0c-2.837 0-5.086-0.917-6.75-2.756-1.664-1.837-2.494-4.375-2.494-7.614v-0.469c0-3.087 0.826-5.555 2.475-7.405 1.651-1.862 3.902-2.795 6.752-2.795 2.411 0 4.373 0.708 5.888 2.121 1.523 1.399 2.325 3.243 2.398 5.53h-4.292c-0.051-1.163-0.45-2.118-1.201-2.867-0.738-0.751-1.681-1.126-2.831-1.126-1.474 0-2.613 0.538-3.413 1.613-0.8 1.062-1.205 2.682-1.218 4.858v0.73c0 2.202 0.395 3.844 1.182 4.932 0.8 1.075 1.95 1.613 3.45 1.613zM72.789 30.242c-2.886 0-5.231-0.907-7.031-2.72-1.788-1.824-2.682-4.25-2.682-7.275v-0.561c0-2.027 0.388-3.831 1.163-5.419 0.789-1.6 1.888-2.846 3.3-3.733 1.312-0.836 2.911-1.332 4.626-1.332 0.035 0 0.070 0 0.105 0.001l-0.005-0c2.763 0 4.894 0.883 6.394 2.645 1.513 1.762 2.268 4.256 2.268 7.482v1.835h-13.254c0.137 1.677 0.693 3.002 1.668 3.977 0.988 0.975 2.225 1.463 3.712 1.463 2.089 0 3.789-0.845 5.099-2.532l2.458 2.345c-0.822 1.211-1.923 2.174-3.215 2.809l-0.049 0.022c-1.348 0.661-2.867 0.994-4.555 0.994zM72.245 12.86c-1.25 0-2.261 0.437-3.038 1.314-0.762 0.875-1.25 2.093-1.461 3.654h8.683v-0.335c-0.102-1.525-0.508-2.675-1.22-3.45-0.713-0.789-1.7-1.182-2.963-1.182zM103.051 19.93c0 3.149-0.704 5.655-2.118 7.518-1.399 1.862-3.33 2.795-5.794 2.795-2.374 0-4.224-0.858-5.549-2.569l-0.226 2.193h-4.124v-28.8h4.555v10.462c1.314-1.549 3.083-2.325 5.308-2.325 2.475 0 4.418 0.919 5.83 2.756 1.412 1.839 2.118 4.407 2.118 7.708v0.262zM98.494 19.535c0-2.199-0.386-3.849-1.161-4.949-0.777-1.101-1.901-1.651-3.377-1.651-1.973 0-3.362 0.864-4.16 2.588v8.363c0.811 1.764 2.212 2.645 4.198 2.645 1.425 0 2.526-0.533 3.3-1.596s1.173-2.667 1.201-4.817v-0.582zM106.801 19.535c0-1.986 0.393-3.776 1.18-5.361 0.789-1.6 1.894-2.827 3.319-3.676 1.425-0.862 3.063-1.295 4.913-1.295 2.737 0 4.956 0.883 6.656 2.645 1.713 1.762 2.637 4.1 2.773 7.012l0.021 1.067c0 2.001-0.388 3.789-1.163 5.363-0.732 1.538-1.864 2.784-3.263 3.635l-0.037 0.021c-1.425 0.864-3.076 1.295-4.949 1.295-2.863 0-5.158-0.951-6.882-2.85-1.713-1.914-2.569-4.457-2.569-7.631v-0.226zM111.356 19.93c0 2.086 0.433 3.725 1.295 4.913 0.862 1.173 2.063 1.762 3.599 1.762 1.538 0 2.731-0.599 3.584-1.801 0.86-1.201 1.293-2.957 1.293-5.269 0-2.048-0.446-3.674-1.331-4.875-0.875-1.199-2.069-1.801-3.584-1.801-1.485 0-2.667 0.595-3.541 1.781-0.875 1.175-1.314 2.938-1.314 5.289zM129.431 19.535c0-1.986 0.393-3.776 1.18-5.361 0.789-1.6 1.894-2.827 3.319-3.676 1.425-0.862 3.063-1.295 4.913-1.295 2.737 0 4.956 0.883 6.656 2.645 1.713 1.762 2.637 4.1 2.773 7.012l0.021 1.067c0 2.001-0.388 3.789-1.163 5.363-0.732 1.538-1.864 2.784-3.263 3.635l-0.037 0.021c-1.425 0.864-3.076 1.295-4.949 1.295-2.863 0-5.158-0.951-6.882-2.85-1.713-1.914-2.569-4.457-2.569-7.631v-0.226zM133.988 19.93c0 2.086 0.431 3.725 1.293 4.913 0.862 1.173 2.063 1.762 3.599 1.762 1.538 0 2.731-0.599 3.584-1.801 0.86-1.201 1.293-2.957 1.293-5.269 0-2.048-0.444-3.674-1.331-4.875-0.875-1.199-2.069-1.801-3.584-1.801-1.485 0-2.667 0.595-3.541 1.781-0.875 1.175-1.312 2.938-1.312 5.289zM159.505 21.167l-2.027 2.082v6.618h-4.555v-28.8h4.557v16.612l1.425-1.781 5.606-6.319h5.474l-7.537 8.457 8.343 11.831h-5.269l-6.018-8.7z"></path>
</symbol>
</defs>
</svg>
